<?xml version="1.0" encoding="utf-8"?>
<!-- Svg Vector Icons : http://www.sfont.cn -->
<!DOCTYPE svg PUBLIC "-//W3C//DTD SVG 1.1//EN" "http://www.w3.org/Graphics/SVG/1.1/DTD/svg11.dtd">
<svg version="1.1" xmlns="http://www.w3.org/2000/svg" xmlns:xlink="http://www.w3.org/1999/xlink" x="0px" y="0px" viewBox="0 0 1000 1000" enable-background="new 0 0 1000 1000" xml:space="preserve">
<metadata> Svg Vector Icons : http://www.sfont.cn </metadata>
<g><g transform="translate(0.000000,512.000000) scale(0.100000,-0.100000)"><path d="M716.3,4420.9c-327.3-327.3-597.2-606.8-597.2-616.3c0-11.5,44-63.2,95.7-114.8l95.7-95.7L913.5,4197c331.1,331.1,602.9,612.5,602.9,622.1c0,19.1-174.2,201-191.4,201C1319.3,5020,1045.5,4750.1,716.3,4420.9z"/><path d="M4511.9,4997c-645-55.5-1854.7-296.7-2620.4-522.5l-112.9-32.5l333-333l333-331.1l185.7,45.9c511,132.1,1205.9,268,1718.8,338.8c112.9,15.3,367.5,24.9,679.5,23c440.2,0,535.9-5.7,836.4-51.7c400-61.3,958.9-174.2,1383.9-279.5l306.3-76.6l333.1,331.1l333,333l-112.9,32.5c-262.2,76.6-1029.8,262.2-1380,333C5813.5,4993.2,5124.4,5052.5,4511.9,4997z"/><path d="M8573.6,4928.1c-49.8-49.8-90-99.5-90-109.1c0-11.5,271.8-290.9,602.9-622.1l602.9-602.9l95.7,95.7c51.7,51.7,95.7,99.5,95.7,105.3c0,11.5-719.7,736.9-1064.2,1073.8L8663.5,5020L8573.6,4928.1z"/><path d="M1118.3,3999.8L712.5,3594l819.2-819.2l817.3-817.3l407.7,407.7l405.8,405.8l-819.2,819.2L1526,4407.5L1118.3,3999.8z"/><path d="M7654.8,3588.3L6837.5,2771l407.7-407.7l405.8-405.8l819.2,819.2l817.3,817.3l-407.7,407.7L8474,4407.5L7654.8,3588.3z"/><path d="M741.2,3105.9c114.8-1776.2,417.3-3137.2,989.6-4427.2c65.1-145.5,126.3-260.3,135.9-256.5c11.5,3.8,155,128.2,319.7,279.5l300.5,273.7L2385.4-793c-128.2,300.5-294.8,784.8-402,1171.4l-84.2,306.3l-124.4,124.4l-124.4,124.4l80.4,80.4l78.5,80.4l-49.8,283.3c-42.1,239.3-78.5,484.3-137.8,953.2c-9.6,70.8-47.9,114.8-451.7,516.8l-440.2,440.2L741.2,3105.9z"/><path d="M8822.4,2841.8l-434.5-434.5l-38.3-308.2c-21-170.4-59.3-436.4-88-593.4c-78.5-457.5-78.5-407.7,9.6-495.7l78.5-74.6l-124.4-126.3l-124.4-124.4l-84.2-306.3C7909.4-8.2,7765.8-429.3,7628-756.6c-57.4-141.6-97.6-262.2-90-269.9c9.6-7.6,149.3-137.8,312-289l296.7-275.6l82.3,178C8728.6-331.7,9055.9,941.1,9199.5,2369c36.4,352.2,74.6,892,65.1,901.5C9260.7,3274.4,9061.6,3081.1,8822.4,2841.8z"/><path d="M3061.1,2057L1937.5,933.5l201-201l201-201L3464.9,1657l1123.6,1123.6l-201,201l-201,201L3061.1,2057z"/><path d="M5616.3,2985.4c-107.2-107.2-195.2-201-195.2-206.7c0-15.3,2222.2-2237.5,2237.5-2237.5c7.6,0,99.5,88,208.6,197.1l195.2,195.2L6937,2058.9L5813.5,3182.5L5616.3,2985.4z"/><path d="M3765.4,1345l-402-402l306.3-306.3L3976,330.5l405.8,405.8l407.7,407.7l-300.5,300.5c-166.5,166.5-306.3,302.4-312,302.4S3985.5,1567,3765.4,1345z"/><path d="M3361.6-496.3L915.4-2741.5l-375.2-937.9c-206.7-514.9-390.5-974.3-407.7-1020.2L100-4780l63.2,24.9c32.5,13.4,491.9,197.1,1018.3,407.7l955.1,380.9l2210.7,2411.7C5562.7-228.4,6573.4,876.1,6596.3,900.9l38.3,44l-400,400c-222,222-407.7,402-413.4,402C5813.5,1747,4707.2,736.3,3361.6-496.3z"/><path d="M5710.1-595.9l-505.3-505.3l155-170.4c84.2-91.9,683.3-736.9,1328.4-1431.7l1173.3-1261.4l937.9-375.1c516.8-206.7,974.3-390.5,1018.3-407.7l82.3-32.5l-32.5,82.3c-17.2,44-201,503.4-407.7,1018.3l-375.1,937.9L7660.5-1417C6875.8-687.7,6230.7-90.5,6225-90.5S5987.6-318.3,5710.1-595.9z"/><path d="M3285-3019.1c-147.4-158.9-268-296.7-271.8-304.3c-7.7-24.9,551.2-560.8,761.8-729.2c111-88,304.3-227.8,430.7-312c268-176.1,713.9-402,794.3-402c80.4,0,526.4,225.9,794.3,402c327.3,216.3,589.5,430.7,916.8,752.2l285.2,279.4l-279.5,298.6l-279.5,300.5l-128.2-137.8c-183.8-199.1-486.2-472.8-696.7-631.6c-208.6-158.9-564.6-377.1-612.5-377.1c-45.9,0-400,216.3-583.8,356c-252.7,193.3-313.9,246.9-595.3,526.4L3551-2728.1L3285-3019.1z"/></g></g>
</svg>