<?xml version="1.0" encoding="utf-8"?>
<!-- Svg Vector Icons : http://www.sfont.cn -->
<!DOCTYPE svg PUBLIC "-//W3C//DTD SVG 1.1//EN" "http://www.w3.org/Graphics/SVG/1.1/DTD/svg11.dtd">
<svg version="1.1" xmlns="http://www.w3.org/2000/svg" xmlns:xlink="http://www.w3.org/1999/xlink" x="0px" y="0px" viewBox="0 0 1000 1000" enable-background="new 0 0 1000 1000" xml:space="preserve">
<metadata> Svg Vector Icons : http://www.sfont.cn </metadata>
<g><path d="M797.6,96.1H202.3L10,352.6l490,551.3l21-23.7l469-527.6L797.6,96.1z M500,380.1l-162.3-13.7L500,158l166.6,208L500,380.1z M660.5,385.4L500,808.5L339.5,385.3L500,399L660.5,385.4z M519.6,152.3h241.3l-85.8,194.2L519.6,152.3z M330,345.6l-90.1-193.3h240.8L330,345.6z M472.1,787.7L96,364.7l222.8,18.9L472.1,787.7z M681.1,383.6l222.8-18.9L527.9,787.8L681.1,383.6z M914,345l-226.2,19.2l89.2-201.9L914,345z M223.5,161.6l94.8,203.2L86,345L223.5,161.6z"/></g>
</svg>